<svg width="243" height="96" viewBox="0 0 243 96" fill="none" xmlns="http://www.w3.org/2000/svg">
<path d="M120.867 95.2564C111.092 95.2564 102.799 91.8517 95.9898 85.0423C89.1804 78.2329 85.7757 69.9405 85.7757 60.165C85.7757 51.8099 88.3449 44.4365 93.4833 38.0449C98.6217 31.6532 105.243 27.5801 113.348 25.8255C111.175 25.4078 109.086 24.802 107.081 24.0083C105.076 23.2146 103.28 22.024 101.692 20.4365C99.3527 18.0135 97.7862 15.2146 96.9924 12.0396C96.1987 8.86469 95.8018 5.6062 95.8018 2.26416V0.00828605C102.987 -0.158816 109.17 2.2015 114.35 7.08923C119.53 11.977 122.079 17.9717 121.995 25.0736C123.165 21.4809 124.815 18.1389 126.945 15.0475C129.076 11.9561 131.478 9.07357 134.152 6.39994C134.904 5.64798 135.781 5.272 136.784 5.272C137.786 5.272 138.663 5.64798 139.415 6.39994C140.167 7.1519 140.543 8.02918 140.543 9.03179C140.543 10.0344 140.167 10.9117 139.415 11.6636C137.327 13.7524 135.447 16.0083 133.776 18.4313C132.105 20.8543 130.684 23.4026 129.515 26.0762C137.368 28.0814 143.739 32.2381 148.627 38.5462C153.515 44.8543 155.959 52.0606 155.959 60.165C155.959 69.9405 152.554 78.2329 145.744 85.0423C138.935 91.8517 130.643 95.2564 120.867 95.2564ZM120.867 87.7368C128.554 87.7368 135.071 85.0632 140.418 79.7159C145.765 74.3687 148.439 67.8517 148.439 60.165C148.439 52.4783 145.765 45.9613 140.418 40.6141C135.071 35.2668 128.554 32.5932 120.867 32.5932C113.18 32.5932 106.663 35.2668 101.316 40.6141C95.9689 45.9613 93.2953 52.4783 93.2953 60.165C93.2953 67.8517 95.9689 74.3687 101.316 79.7159C106.663 85.0632 113.18 87.7368 120.867 87.7368Z" fill="url(#paint0_linear_328_1003)"/>
<path d="M45.331 92.1839V74.4241H0V62.5014L36.5132 5.24774H55.3907V65.3579H70.2941V74.4241H55.3907V92.1839H45.331ZM10.0598 65.3579H45.331V11.3333H43.5923L10.0598 63.8675V65.3579Z" fill="url(#paint1_linear_328_1003)"/>
<path d="M217.392 92.1839V74.4241H172.061V62.5014L208.574 5.24774H227.452V65.3579H242.355V74.4241H227.452V92.1839H217.392ZM182.121 65.3579H217.392V11.3333H215.653L182.121 63.8675V65.3579Z" fill="url(#paint2_linear_328_1003)"/>
<defs>
<linearGradient id="paint0_linear_328_1003" x1="0" y1="0" x2="243.609" y2="3.32143" gradientUnits="userSpaceOnUse">
<stop stop-color="#48E5C2"/>
<stop offset="1" stop-color="#55DDE0"/>
</linearGradient>
<linearGradient id="paint1_linear_328_1003" x1="0" y1="0" x2="243.609" y2="3.32143" gradientUnits="userSpaceOnUse">
<stop stop-color="#48E5C2"/>
<stop offset="1" stop-color="#55DDE0"/>
</linearGradient>
<linearGradient id="paint2_linear_328_1003" x1="0" y1="0" x2="243.609" y2="3.32143" gradientUnits="userSpaceOnUse">
<stop stop-color="#48E5C2"/>
<stop offset="1" stop-color="#55DDE0"/>
</linearGradient>
</defs>
</svg>
