<svg width="75" height="76" viewBox="0 0 75 76" fill="none" xmlns="http://www.w3.org/2000/svg">
<path d="M24.734 29.6H33.5106V34.4H24.734V29.6Z" fill="#55DDE0"/>
<path d="M15.9574 25.6H25.5319V30.4H15.9574V25.6Z" fill="#55DDE0"/>
<path d="M0 16.8H8.7766V21.6H0V16.8Z" fill="#55DDE0"/>
<path d="M0 55.2H8.7766V60H0V55.2Z" fill="#55DDE0"/>
<path d="M0 55.2V21.6H3.98936V55.2H0Z" fill="#55DDE0"/>
<path d="M37.5 71.2V38.4H41.4894V71.2H37.5Z" fill="#55DDE0"/>
<path d="M7.97872 59.2H16.7553V64H7.97872V59.2Z" fill="#55DDE0"/>
<path d="M15.9574 63.2H25.5319V68H15.9574V63.2Z" fill="#55DDE0"/>
<path d="M24.734 67.2H33.5106V72H24.734V67.2Z" fill="#55DDE0"/>
<path d="M32.7128 71.2H42.2872V76H32.7128V71.2Z" fill="#55DDE0"/>
<path d="M32.7128 33.6H42.2872V38.4H32.7128V33.6Z" fill="#55DDE0"/>
<path d="M40.6915 67.2H50.266V72H40.6915V67.2Z" fill="#55DDE0"/>
<path d="M48.6702 63.2H58.2447V68H48.6702V63.2Z" fill="#55DDE0"/>
<path d="M57.4468 59.2H67.0213V64H57.4468V59.2Z" fill="#55DDE0"/>
<path d="M41.4894 29.6H51.0638V68H41.4894V29.6Z" fill="#55DDE0"/>
<path d="M49.4681 25.6H59.0426V64H49.4681V25.6Z" fill="#55DDE0"/>
<path d="M58.2447 21.6H67.8192V59.2H58.2447V21.6Z" fill="#55DDE0"/>
<path d="M66.2234 16.8H75V60H66.2234V16.8Z" fill="#55DDE0"/>
<path d="M7.18085 12.8H16.7553V17.6H7.18085V12.8Z" fill="#55DDE0"/>
<path d="M15.9574 8.8H25.5319V13.6H15.9574V8.8Z" fill="#55DDE0"/>
<path d="M24.734 4.8H33.5106V9.6H24.734V4.8Z" fill="#55DDE0"/>
<path d="M32.7128 0H42.2872V4.8H32.7128V0Z" fill="#55DDE0"/>
<path d="M41.4894 4.8H50.266V9.6H41.4894V4.8Z" fill="#55DDE0"/>
<path d="M49.4681 8.8H59.0426V13.6H49.4681V8.8Z" fill="#55DDE0"/>
<path d="M57.4468 12.8H67.0213V17.6H57.4468V12.8Z" fill="#55DDE0"/>
<path d="M7.97872 21.6H16.7553V26.4H7.97872V21.6Z" fill="#55DDE0"/>
</svg>
